<svg id="Layer_1" data-name="Layer 1" xmlns="http://www.w3.org/2000/svg" xmlns:xlink="http://www.w3.org/1999/xlink" viewBox="0 0 500 500"><defs><style>.cls-1{fill:#fff;}.cls-2{fill:#00beff;}.cls-3{fill:url(#linear-gradient);}.cls-4{fill-opacity:0.3;fill:url(#linear-gradient-2);}.cls-5{fill:#00e8ff;}.cls-6{fill:url(#linear-gradient-3);}.cls-7{fill:url(#linear-gradient-4);}.cls-8{fill:#b3ff87;}.cls-9{fill-opacity:0.75;fill:url(#linear-gradient-5);}.cls-10{fill:url(#linear-gradient-6);}</style><linearGradient id="linear-gradient" x1="-59.3" y1="-69.34" x2="-59.3" y2="-70.06" gradientTransform="matrix(412.68, 69.05, 69.05, 248.1, 29527.75, 21706.46)" gradientUnits="userSpaceOnUse"><stop offset="0" stop-color="#45d0ff"/><stop offset="0.4" stop-color="#00beff"/><stop offset="1" stop-color="#008fbf"/></linearGradient><linearGradient id="linear-gradient-2" x1="-59.3" y1="-69.62" x2="-59.26" y2="-69.17" gradientTransform="matrix(412.68, 69.05, 69.05, 248.1, 29527.75, 21706.46)" gradientUnits="userSpaceOnUse"><stop offset="0" stop-color="#00beff" stop-opacity="0"/><stop offset="1" stop-color="#007de7"/></linearGradient><linearGradient id="linear-gradient-3" x1="-59.43" y1="-69.28" x2="-59.46" y2="-68.57" gradientTransform="matrix(319.8, 58.34, 58.34, 180.74, 23337.89, 16244.99)" gradientUnits="userSpaceOnUse"><stop offset="0" stop-color="#dffdff" stop-opacity="0"/><stop offset="1" stop-color="#2cbdea"/></linearGradient><linearGradient id="linear-gradient-4" x1="-59.51" y1="-69.53" x2="-59.47" y2="-68.91" gradientTransform="matrix(319.8, 58.34, 58.34, 180.74, 23337.89, 16244.99)" gradientUnits="userSpaceOnUse"><stop offset="0" stop-color="#fff" stop-opacity="0.88"/><stop offset="1" stop-color="#00e8ff" stop-opacity="0"/></linearGradient><linearGradient id="linear-gradient-5" x1="-59.25" y1="-70.36" x2="-59.17" y2="-69.44" gradientTransform="matrix(324.27, 25.13, 25.13, 264.36, 21225.42, 20280.77)" gradientUnits="userSpaceOnUse"><stop offset="0" stop-color="#e3ff84"/><stop offset="0" stop-color="#d6ff85"/><stop offset="0.16" stop-color="#aeff69"/><stop offset="0.33" stop-color="#90ff8a"/><stop offset="0.55" stop-color="#41ff9d"/><stop offset="0.64" stop-color="#00e887"/><stop offset="0.75" stop-color="#00da82"/><stop offset="0.8" stop-color="#01bc79"/><stop offset="1" stop-color="#009468"/></linearGradient><linearGradient id="linear-gradient-6" x1="-110.26" y1="3.41" x2="-110.47" y2="4.22" gradientTransform="matrix(170.59, 2.98, -2.34, 134.25, 19180.22, 164)" gradientUnits="userSpaceOnUse"><stop offset="0" stop-color="#009379"/><stop offset="0.51" stop-color="#00895c"/><stop offset="1" stop-color="#005644"/></linearGradient></defs><title>icon</title><g id="Page-1"><g id="kya-logo-text-on-cone"><g id="cone-filtered-white-bg"><path id="white-bg" class="cls-1" d="M105,393.95c-11.4-4-41.62-16.64-60.33-57.61C23,289.21,42.07,239,70,210.65s65.55-44.14,101.8-30l1.5,0.55-1.13-.41s1.22,0.44,3.25,1.29a101.32,101.32,0,0,1,13.95,7h0c2.8,1.66,5.85,3.51,9,5.62,14,9.56,16.63,11.91,24.48,17.53,1.86,1.32,15.11,9.65,34.49,21.6-12.46-60.51-66.77-80.28-66.77-80.28S208,160.07,220,167s14.51,9.54,23.63,16.37,200.84,166,203.86,168.8c1.85,1.63,8.57,6,12.12,13.78,2.36,5.22,3.41,12,.61,20.55l-0.51,1.41h0c-7.29,20-25.36,19.39-25.36,19.39l-10.29.19c-50.45.9-271.65,3.71-315.07-12.09l-1.13-.41-0.19-.07A13.6,13.6,0,0,1,105,393.95Z"/><g id="back"><path id="path-3" class="cls-2" d="M447.37,352.25c-3-2.8-216.85-134.58-224.73-140.11s-10.6-8-24.57-17.56S174.88,182,171.68,180.81c-36.25-14.15-74.12,2.18-102.1,30.52S23.38,289.45,45,336.57,103.18,393,109,395.1c5.54,2,13.94,3.8,24.44,5.07a15.16,15.16,0,0,1,2.08.44c1.92,0.27,4.13.33,6.19,0.55,0.82,0.09,1.44.42,2.26,0.5,1.55,0.14,5.34.24,7,.41,1.83,0.24,1,.88,3.11.81,1.49,0,4.49-.07,8.25.13,1.67,0.08,2.77.58,4.22,0.68,1.14,0.09,3.38.06,4.65,0.1,2.18,0.15,3.51,0,5.69.16,1,0.06,2.29.73,3.33,0.79,1.86,0.15,3.51,0,5.85,0s4.65,0.1,6.1.2,4.84,0.16,6.48.34a29,29,0,0,0,3.43.51c1,0.06,2,0,3.07.05a30.43,30.43,0,0,0,3.73,0c2.88,0,5.82.1,7.21,0.07,1.17,0,3.79.1,6.79,0.34,1.86,0.15,3.94.58,5.52,0.63,0.41,0,1.08,0,1.49,0,2.53,0.07,2.25,0,7.84.09s10.35-.07,15.81.12c3.07,0.05,6.12.74,9.18,0.79,5.28,0.11,15.72.08,15.72,0.08l16.29,0s12.43,0.05,18.6.07L336,408c14.14,0,27.55,0,39.57,0,35.18-.18,59.08-0.63,59.08-0.63s18.9,0.71,25.88-20.8S450.43,355,447.37,352.25Z"/><path id="path-3-2" data-name="path-3" class="cls-3" d="M447.37,352.25c-3-2.8-216.85-134.58-224.73-140.11s-10.6-8-24.57-17.56S174.88,182,171.68,180.81c-36.25-14.15-74.12,2.18-102.1,30.52S23.38,289.45,45,336.57,103.18,393,109,395.1c5.54,2,13.94,3.8,24.44,5.07a15.16,15.16,0,0,1,2.08.44c1.92,0.27,4.13.33,6.19,0.55,0.82,0.09,1.44.42,2.26,0.5,1.55,0.14,5.34.24,7,.41,1.83,0.24,1,.88,3.11.81,1.49,0,4.49-.07,8.25.13,1.67,0.08,2.77.58,4.22,0.68,1.14,0.09,3.38.06,4.65,0.1,2.18,0.15,3.51,0,5.69.16,1,0.06,2.29.73,3.33,0.79,1.86,0.15,3.51,0,5.85,0s4.65,0.1,6.1.2,4.84,0.16,6.48.34a29,29,0,0,0,3.43.51c1,0.06,2,0,3.07.05a30.43,30.43,0,0,0,3.73,0c2.88,0,5.82.1,7.21,0.07,1.17,0,3.79.1,6.79,0.34,1.86,0.15,3.94.58,5.52,0.63,0.41,0,1.08,0,1.49,0,2.53,0.07,2.25,0,7.84.09s10.35-.07,15.81.12c3.07,0.05,6.12.74,9.18,0.79,5.28,0.11,15.72.08,15.72,0.08l16.29,0s12.43,0.05,18.6.07L336,408c14.14,0,27.55,0,39.57,0,35.18-.18,59.08-0.63,59.08-0.63s18.9,0.71,25.88-20.8S450.43,355,447.37,352.25Z"/><path id="path-3-3" data-name="path-3" class="cls-4" d="M447.37,352.25c-3-2.8-216.85-134.58-224.73-140.11s-10.6-8-24.57-17.56S174.88,182,171.68,180.81c-36.25-14.15-74.12,2.18-102.1,30.52S23.38,289.45,45,336.57,103.18,393,109,395.1c5.54,2,13.94,3.8,24.44,5.07a15.16,15.16,0,0,1,2.08.44c1.92,0.27,4.13.33,6.19,0.55,0.82,0.09,1.44.42,2.26,0.5,1.55,0.14,5.34.24,7,.41,1.83,0.24,1,.88,3.11.81,1.49,0,4.49-.07,8.25.13,1.67,0.08,2.77.58,4.22,0.68,1.14,0.09,3.38.06,4.65,0.1,2.18,0.15,3.51,0,5.69.16,1,0.06,2.29.73,3.33,0.79,1.86,0.15,3.51,0,5.85,0s4.65,0.1,6.1.2,4.84,0.16,6.48.34a29,29,0,0,0,3.43.51c1,0.06,2,0,3.07.05a30.43,30.43,0,0,0,3.73,0c2.88,0,5.82.1,7.21,0.07,1.17,0,3.79.1,6.79,0.34,1.86,0.15,3.94.58,5.52,0.63,0.41,0,1.08,0,1.49,0,2.53,0.07,2.25,0,7.84.09s10.35-.07,15.81.12c3.07,0.05,6.12.74,9.18,0.79,5.28,0.11,15.72.08,15.72,0.08l16.29,0s12.43,0.05,18.6.07L336,408c14.14,0,27.55,0,39.57,0,35.18-.18,59.08-0.63,59.08-0.63s18.9,0.71,25.88-20.8S450.43,355,447.37,352.25Z"/></g><g id="inside"><path id="path-6" class="cls-5" d="M447.41,352.15c-3-2.8-216.57-134.48-224.45-140s-10.6-8-24.48-17.53a122.72,122.72,0,0,0-26.16-13.78s15.9,5.15,26.17,17,21.51,30.07,20.83,57.38a123.26,123.26,0,0,1-47.71,95.12l262.84,57s18.9,0.71,25.88-20.8S450.43,355,447.41,352.15Z"/><path id="path-6-2" data-name="path-6" class="cls-6" d="M447.41,352.15c-3-2.8-216.57-134.48-224.45-140s-10.6-8-24.48-17.53a122.72,122.72,0,0,0-26.16-13.78s15.9,5.15,26.17,17,21.51,30.07,20.83,57.38a123.26,123.26,0,0,1-47.71,95.12l262.84,57s18.9,0.71,25.88-20.8S450.43,355,447.41,352.15Z"/><path id="path-6-3" data-name="path-6" class="cls-7" d="M447.41,352.15c-3-2.8-216.57-134.48-224.45-140s-10.6-8-24.48-17.53a122.72,122.72,0,0,0-26.16-13.78s15.9,5.15,26.17,17,21.51,30.07,20.83,57.38a123.26,123.26,0,0,1-47.71,95.12l262.84,57s18.9,0.71,25.88-20.8S450.43,355,447.41,352.15Z"/></g><g id="front"><path id="path-8" class="cls-8" d="M447.41,352.15c-3-2.8-194.78-161.88-203.86-168.8S232,173.83,219.92,167s-29.37-13.46-29.37-13.46,60.52,22,68.51,90.7-29.94,122-74.82,143.89-85.1,3.72-79.18,5.87l4,1.47c49.05,17.85,325.78,12.48,325.78,12.48s18.75,0.23,25.7-21.19S450.43,355,447.41,352.15Z"/><path id="path-8-2" data-name="path-8" class="cls-9" d="M447.41,352.15c-3-2.8-194.78-161.88-203.86-168.8S232,173.83,219.92,167s-29.37-13.46-29.37-13.46,60.52,22,68.51,90.7-29.94,122-74.82,143.89-85.1,3.72-79.18,5.87l4,1.47c49.05,17.85,325.78,12.48,325.78,12.48s18.75,0.23,25.7-21.19S450.43,355,447.41,352.15Z"/></g></g><path id="kya" class="cls-10" d="M318.7,355.5c1.1-.8,1.8-0.9,2.2-0.4a3.59,3.59,0,0,1,.3,2.7,16.89,16.89,0,0,1-1.5,4.5,22.78,22.78,0,0,1-3.2,4.9,26.16,26.16,0,0,1-4.8,4.6,16.58,16.58,0,0,1-6.3,2.9,16.35,16.35,0,0,1-9.3,0,15.07,15.07,0,0,1-3.3-1.3,12.3,12.3,0,0,1-3.1-1.9,20.13,20.13,0,0,1-5.4-5.5,21.82,21.82,0,0,1-2.6-5.7,58.66,58.66,0,0,1-1.8-8.4,90.34,90.34,0,0,1-7.9,10.7c-2.4,2.8-4.8,5.1-7,7.3-0.4.4-1.6,0.3-3.5-.5a15.15,15.15,0,0,1-5.1-3.2,13.84,13.84,0,0,1-3.5-4.8c-0.8-1.8-.5-3.2,1.2-5.6,1-1.4,2.9-3.9,5.3-7.8s5.5-8.8,8.7-14.5,6.5-11.7,9.6-17.4,5.6-9.8,7.7-13.9a350.25,350.25,0,0,0,14.8-32.4c0.2-.7.9-0.8,2-0.3a16.09,16.09,0,0,1,3.9,2.9,37.28,37.28,0,0,1,4.4,5,34,34,0,0,1,3.7,5.9,18.5,18.5,0,0,1,1.8,5.8,7.41,7.41,0,0,1-1,5.1c-0.1.2-.6,1.1-1.5,2.6s-2.2,3.6-3.6,6.1-3.3,5.4-5.4,8.7-4.3,6.8-7.1,11.6a105.71,105.71,0,0,1,11.9-3.6c3.8-.9,7.1-1.6,10.1-2.2,3.4-.8,6.4-1.8,9.3-2.6,1.1-.4,1.7.1,2,1.6a12.92,12.92,0,0,1-.5,5.3,18.86,18.86,0,0,1-3.1,6.4,14.4,14.4,0,0,1-5.7,5c-6.5,3-13.7,6-21.2,9.3,0.2,1.6.3,3.1,0.6,4.7s0.4,3.2.6,4.9c0.4,3.5,1.4,5.6,2.8,6.8a6.25,6.25,0,0,0,4.6,1.5,12.92,12.92,0,0,0,5-1.7,29.32,29.32,0,0,0,4.9-3.1h0Zm51.7-21.8c0.3-.5.8-0.5,1.6-0.2a10.67,10.67,0,0,1,2.7,1.7,21.21,21.21,0,0,1,3,3,15.61,15.61,0,0,1,2.5,3.8,13.62,13.62,0,0,1,1.2,4.5,7.81,7.81,0,0,1-1.1,4.7c-0.2.2-.9,1.5-2.1,3.6s-2.7,4.6-4.6,7.7-4.3,6.7-7.4,11.3-6.5,9.1-9.5,12.7c-2.9,3.4-5.4,6.2-8.1,9.1s-5,5.6-7.2,8.5c-0.3.4-1.1,0.3-2.6-.1a15.73,15.73,0,0,1-4.5-2.5,9.69,9.69,0,0,1-3.5-3.8,3.34,3.34,0,0,1,.4-4.1c0.7-.8,1.8-2.2,3.4-4.1s3.4-4.1,5.6-7a44.24,44.24,0,0,1-5.1-.1,13.22,13.22,0,0,1-5.1-1.6,12.75,12.75,0,0,1-4.2-3.1,9.16,9.16,0,0,1-2.5-5,18.91,18.91,0,0,1,.3-7.4c0.5-2.8,2.1-6.3,4.4-10.3,1.1-1.9,2.4-4.3,3.7-6.8,1.3-2.7,2.8-5.5,4.2-8.4s3-5.7,4.4-8.5,3-5.4,4.3-7.6a1.48,1.48,0,0,1,1.9-.8,8.74,8.74,0,0,1,2.7,1.4,11.59,11.59,0,0,1,2.8,3,16.67,16.67,0,0,1,2.5,3.6,9.24,9.24,0,0,1,1.5,3.6,3.5,3.5,0,0,1-.2,2.9c-1.8,2.9-3.2,5.5-4.6,8s-2.7,4.8-4,6.9c-4,6.8-6.9,11.8-8.4,15s-2,4.9-1.3,5.5q0.45,0.45,2.1,0a14.6,14.6,0,0,0,3.9-1.6,37.55,37.55,0,0,0,5.4-3.7,39.34,39.34,0,0,0,5.9-6.2c2.3-3.8,4.3-7.3,6.2-10.7s3.4-6.4,4.9-9.3c1.9-3.5,3.3-5.8,4.5-7.6h0Zm46.5,49.4a1.75,1.75,0,0,1,1.9.1,2.19,2.19,0,0,1,.5,1.9,7.93,7.93,0,0,1-1,2.8,12.82,12.82,0,0,1-2.8,3.1,16.54,16.54,0,0,1-4.1,2.8,15.8,15.8,0,0,1-4.8,1.5,9.7,9.7,0,0,1-3.4,0,9.42,9.42,0,0,1-3-.7,7.22,7.22,0,0,1-2.4-1.4,4.64,4.64,0,0,1-1.4-2.2,14.82,14.82,0,0,1-6.1,1.5,12.5,12.5,0,0,1-6.2-1.4c-3-1.5-5.9-3.4-7.3-5.7s-1.7-5.1-1.6-8.2a31.17,31.17,0,0,1,2.1-8.9,47.5,47.5,0,0,1,10.8-16.1,14.59,14.59,0,0,1,8-4.7,18,18,0,0,1,7.3-.1,16.53,16.53,0,0,1,10.1,8.3c0.5-1,.7-1.4,1.1-2.3a0.89,0.89,0,0,1,1.3-.5,5.64,5.64,0,0,1,2,1.4,16.15,16.15,0,0,1,2.3,2.7,17,17,0,0,1,1.9,3.5,10.07,10.07,0,0,1,.9,3.8,5.75,5.75,0,0,1-.2,2.8,38.21,38.21,0,0,1-3.3,5.3,21.23,21.23,0,0,1-3.3,3.9c-1.1,1.2-2.2,2.5-3.4,3.8s-2.5,2.9-3.9,4.7c0.8-.1,1.8-0.3,3.1-0.5a14.8,14.8,0,0,0,4.9-1.2h0Zm-28.5,1.3a2,2,0,0,0,1.7-.1,12.63,12.63,0,0,0,3.2-1.9c1.2-.9,2.6-2.2,4.1-3.5s2.9-3,4.3-4.7a32.44,32.44,0,0,0,3.5-5.4A28.78,28.78,0,0,0,407,364a14.17,14.17,0,0,0,.5-3.8,5.15,5.15,0,0,0-.3-2.1,1.36,1.36,0,0,0-1.2-.5,5.83,5.83,0,0,0-2.5,1,21.52,21.52,0,0,0-3.5,3.1,56.56,56.56,0,0,0-4.3,5.4c-1.5,2.2-2.9,4.1-3.9,5.9a48.85,48.85,0,0,0-2.5,5.3,24,24,0,0,0-1.1,4.2c-0.2,1-.1,1.7.2,1.9h0Z"/></g></g></svg>